HIERARCHY
ROOT hips
{
  OFFSET 0 10.6860622 2.3727825e-15
  CHANNELS 6 Xposition Yposition Zposition Yrotation Xrotation Zrotation
  JOINT leftUpperLeg
  {
    OFFSET 0.6642549969 -0.9402397400000004 0
    CHANNELS 3 Yrotation Xrotation Zrotation
    JOINT leftLowerLeg
    {
      OFFSET 0 -3.997221335632195 0
      CHANNELS 3 Yrotation Xrotation Zrotation
      JOINT leftFoot
      {
        OFFSET -0.13777839790000004 -4.6145792000000005 -0.22186036399999998
        CHANNELS 3 Yrotation Xrotation Zrotation
        JOINT leftToes
        {
          OFFSET -0.03777410834999995 -0.9130806927000008 0.85230013
          CHANNELS 3 Yrotation Xrotation Zrotation
          End Site
          {
            OFFSET -0.03777410834999995 -0.9130806927000008 0.85230013
          }
        }
      }
    }
  }
  JOINT rightUpperLeg
  {
    OFFSET -0.6642778626 -0.9402397400000004 0
    CHANNELS 3 Yrotation Xrotation Zrotation
    JOINT rightLowerLeg
    {
      OFFSET 0 -3.997221452859387 0
      CHANNELS 3 Yrotation Xrotation Zrotation
      JOINT rightFoot
      {
        OFFSET 0.1377926176 -4.6145792000000005 -0.22185782299999995
        CHANNELS 3 Yrotation Xrotation Zrotation
        JOINT rightToes
        {
          OFFSET 0.037780746850000047 -0.9130806927000008 0.85230167
          CHANNELS 3 Yrotation Xrotation Zrotation
          End Site
          {
            OFFSET 0.037780746850000047 -0.9130806927000008 0.85230167
          }
        }
      }
    }
  }
  JOINT spine
  {
    OFFSET 0 0.13988381660000015 0
    CHANNELS 3 Yrotation Xrotation Zrotation
    JOINT chest
    {
      OFFSET 0 0.6191039003973773 0
      CHANNELS 3 Yrotation Xrotation Zrotation
      JOINT upperChest
      {
        OFFSET 0 0.9855186130586943 0
        CHANNELS 3 Yrotation Xrotation Zrotation
        JOINT leftShoulder
        {
          OFFSET 0.1807663869 1.5087829790000005 0
          CHANNELS 3 Yrotation Xrotation Zrotation
          JOINT leftUpperArm
          {
            OFFSET 0.5985063006419806 0 0
            CHANNELS 3 Yrotation Xrotation Zrotation
            JOINT leftLowerArm
            {
              OFFSET 2.2993332369501065 0 0
              CHANNELS 3 Yrotation Xrotation Zrotation
              JOINT leftHand
              {
                OFFSET 2.395047042602395 0 0
                CHANNELS 3 Yrotation Xrotation Zrotation
                JOINT leftIndexProximal
                {
                  OFFSET 0.5766295810000004 0.04556643899499946 0.17265095988184
                  CHANNELS 3 Yrotation Xrotation Zrotation
                  JOINT leftIndexIntermediate
                  {
                    OFFSET 0.2957229000000008 -0.019352197700001517 -0.007932640616999987
                    CHANNELS 3 Yrotation Xrotation Zrotation
                    JOINT leftIndexDistal
                    {
                      OFFSET 0.19008243099999922 -0.012484908149998475 -0.002786250786000012
                      CHANNELS 3 Yrotation Xrotation Zrotation
                      End Site
                      {
                        OFFSET 0.19008243099999922 -0.012484908149998475 -0.002786250786000012
                      }
                    }
                  }
                }
                JOINT leftMiddleProximal
                {
                  OFFSET 0.5834975091000001 0.0524350405149987 0.02204081888183999
                  CHANNELS 3 Yrotation Xrotation Zrotation
                  JOINT leftMiddleIntermediate
                  {
                    OFFSET 0.33880573540000003 -0.019871473270000717 -0.00000971183179999946
                    CHANNELS 3 Yrotation Xrotation Zrotation
                    JOINT leftMiddleDistal
                    {
                      OFFSET 0.20676022730000088 -0.012221336379999448 0.0001471936708000235
                      CHANNELS 3 Yrotation Xrotation Zrotation
                      End Site
                      {
                        OFFSET 0.20676022730000088 -0.012221336379999448 0.0001471936708000235
                      }
                    }
                  }
                }
                JOINT leftLittleProximal
                {
                  OFFSET 0.5344154683999995 -0.012880921405001189 -0.24414037221816004
                  CHANNELS 3 Yrotation Xrotation Zrotation
                  JOINT leftLittleIntermediate
                  {
                    OFFSET 0.21758961730000093 -0.011650919939999227 0.011893592810000034
                    CHANNELS 3 Yrotation Xrotation Zrotation
                    JOINT leftLittleDistal
                    {
                      OFFSET 0.1475273964999999 -0.008152365682999818 0.006001092492999946
                      CHANNELS 3 Yrotation Xrotation Zrotation
                      End Site
                      {
                        OFFSET 0.1475273964999999 -0.008152365682999818 0.006001092492999946
                      }
                    }
                  }
                }
                JOINT leftRingProximal
                {
                  OFFSET 0.5799399463000003 0.026911854694997794 -0.12150566991816003
                  CHANNELS 3 Yrotation Xrotation Zrotation
                  JOINT leftRingIntermediate
                  {
                    OFFSET 0.26167887460000006 -0.013480186499999602 0.010996293000000053
                    CHANNELS 3 Yrotation Xrotation Zrotation
                    JOINT leftRingDistal
                    {
                      OFFSET 0.17667108799999987 -0.008990287899999228 0.0055541023999999065
                      CHANNELS 3 Yrotation Xrotation Zrotation
                      End Site
                      {
                        OFFSET 0.17667108799999987 -0.008990287899999228 0.0055541023999999065
                      }
                    }
                  }
                }
                JOINT leftThumbProximal
                {
                  OFFSET 0.11018806699999972 -0.09448718900500053 0.17047963138184
                  CHANNELS 3 Yrotation Xrotation Zrotation
                  JOINT leftThumbIntermediate
                  {
                    OFFSET 0.31062601459999983 -0.08126270900000132 0.15443142000000007
                    CHANNELS 3 Yrotation Xrotation Zrotation
                    JOINT leftThumbDistal
                    {
                      OFFSET 0.21627175790000086 -0.08833193599999878 0.018771167799999988
                      CHANNELS 3 Yrotation Xrotation Zrotation
                      End Site
                      {
                        OFFSET 0.21627175790000086 -0.08833193599999878 0.018771167799999988
                      }
                    }
                  }
                }
              }
            }
          }
        }
        JOINT neck
        {
          OFFSET 0 1.5463305265074576 0
          CHANNELS 3 Yrotation Xrotation Zrotation
          JOINT head
          {
            OFFSET 0 0.8456443600000344 0
            CHANNELS 3 Yrotation Xrotation Zrotation
            JOINT leftEye
            {
              OFFSET 0.30408573140000006 0.5104519199999995 0.1276382305
              CHANNELS 3 Yrotation Xrotation Zrotation
              End Site
              {
                OFFSET 0.30408573140000006 0.5104519199999995 0.1276382305
              }
            }
            JOINT rightEye
            {
              OFFSET -0.30409491089999996 0.5104519199999995 0.1276379445
              CHANNELS 3 Yrotation Xrotation Zrotation
              End Site
              {
                OFFSET -0.30409491089999996 0.5104519199999995 0.1276379445
              }
            }
            JOINT jaw
            {
              OFFSET -3.155239131000001e-7 -0.11984121820000082 0.60178107
              CHANNELS 3 Yrotation Xrotation Zrotation
              End Site
              {
                OFFSET -3.155239131000001e-7 -0.11984121820000082 0.60178107
              }
            }
          }
        }
        JOINT rightShoulder
        {
          OFFSET -0.1807303465 1.5087829790000005 0
          CHANNELS 3 Yrotation Xrotation Zrotation
          JOINT rightUpperArm
          {
            OFFSET -0.5985063796536958 0 0
            CHANNELS 3 Yrotation Xrotation Zrotation
            JOINT rightLowerArm
            {
              OFFSET -2.2993322059002854 0 0
              CHANNELS 3 Yrotation Xrotation Zrotation
              JOINT rightHand
              {
                OFFSET -2.395045314457259 0 0
                CHANNELS 3 Yrotation Xrotation Zrotation
                JOINT rightIndexProximal
                {
                  OFFSET -0.5764487688300002 0.0441371204405987 0.17361932004999997
                  CHANNELS 3 Yrotation Xrotation Zrotation
                  JOINT rightIndexIntermediate
                  {
                    OFFSET -0.29573011380000047 -0.01934826376999843 -0.007698921482999974
                    CHANNELS 3 Yrotation Xrotation Zrotation
                    JOINT rightIndexDistal
                    {
                      OFFSET -0.19008373999999884 -0.012503266380000655 -0.0026365778999999897
                      CHANNELS 3 Yrotation Xrotation Zrotation
                      End Site
                      {
                        OFFSET -0.19008373999999884 -0.012503266380000655 -0.0026365778999999897
                      }
                    }
                  }
                }
                JOINT rightMiddleProximal
                {
                  OFFSET -0.5834852037300005 0.05211639405060153 0.02307162440000001
                  CHANNELS 3 Yrotation Xrotation Zrotation
                  JOINT rightMiddleIntermediate
                  {
                    OFFSET -0.33880114510000003 -0.019952774050000954 0.0002455003561999819
                    CHANNELS 3 Yrotation Xrotation Zrotation
                    JOINT rightMiddleDistal
                    {
                      OFFSET -0.20675694929999955 -0.012273788999999091 0.00030209124000002766
                      CHANNELS 3 Yrotation Xrotation Zrotation
                      End Site
                      {
                        OFFSET -0.20675694929999955 -0.012273788999999091 0.00030209124000002766
                      }
                    }
                  }
                }
                JOINT rightLittleProximal
                {
                  OFFSET -0.5346811737299992 -0.011214256288399227 -0.24363941305000003
                  CHANNELS 3 Yrotation Xrotation Zrotation
                  JOINT rightLittleIntermediate
                  {
                    OFFSET -0.21757715980000092 -0.011771559690000988 0.01201554387
                    CHANNELS 3 Yrotation Xrotation Zrotation
                    JOINT rightLittleDistal
                    {
                      OFFSET -0.1475201849000004 -0.00822055339600003 0.006082065407000015
                      CHANNELS 3 Yrotation Xrotation Zrotation
                      End Site
                      {
                        OFFSET -0.1475201849000004 -0.00822055339600003 0.006082065407000015
                      }
                    }
                  }
                }
                JOINT rightRingProximal
                {
                  OFFSET -0.5800810755299999 0.027657985680600072 -0.12066365025000003
                  CHANNELS 3 Yrotation Xrotation Zrotation
                  JOINT rightRingIntermediate
                  {
                    OFFSET -0.26166445029999974 -0.013623118409999302 0.011164098990000045
                    CHANNELS 3 Yrotation Xrotation Zrotation
                    JOINT rightRingDistal
                    {
                      OFFSET -0.17666387530000027 -0.009072900100000503 0.005668185599999959
                      CHANNELS 3 Yrotation Xrotation Zrotation
                      End Site
                      {
                        OFFSET -0.17666387530000027 -0.009072900100000503 0.005668185599999959
                      }
                    }
                  }
                }
                JOINT rightThumbProximal
                {
                  OFFSET -0.10997596379000074 -0.09577489355940072 0.16989765924999997
                  CHANNELS 3 Yrotation Xrotation Zrotation
                  JOINT rightThumbIntermediate
                  {
                    OFFSET -0.31036620999999986 -0.08229339117999834 0.15440884469999996
                    CHANNELS 3 Yrotation Xrotation Zrotation
                    JOINT rightThumbDistal
                    {
                      OFFSET -0.21631306399999906 -0.08825326400000111 0.018656797720000014
                      CHANNELS 3 Yrotation Xrotation Zrotation
                      End Site
                      {
                        OFFSET -0.21631306399999906 -0.08825326400000111 0.018656797720000014
                      }
                    }
                  }
                }
              }
            }
          }
        }
      }
    }
  }
}
MOTION
Frames: 9
Frame Time: 0.03333333333333333
0 11.682712981546562 0 0 0 0 0 0 -5.826343164929014 -0.3712483961610101 -3.6333298826370974 5.838118207697276 0 0 0 0 0 0 0 0 5.826343164929014 0.3712483961610101 -3.6333298826370974 -5.838118207697276 0 0 0 0 0 0 0 -4.610651315171937 0 0 3.0831277533083026 0 0 0 0 0 1.5275236235667615 0 0 0 0 0 0 0 0 0 0 0 0 0 0 0 0 0 0 0 0 0 0 0 0 0 0 0 0 0 0 0 0 0 0 0 0 0 0 0 0 0 0 0 0 0 0 0 0 0 0 0 0 0 0 0 0 1.5275236235667615 0 0 0 0 0 0 0 0 0 0 0 0 0 0 1.5275236235667615 0 0 0 0 0 0 0 0 0 0 0 0 0 0 0 0 0 0 0 0 0 0 0 0 0 0 0 0 0 0 0 0 0 0 0 0 0 0 0 0 0 0 0 0 0 0 0 0 0 0 0 0 0 0 0
-0.12496102598966756 -10.313462304046588 0.2539479360489263 0 -85.00048480796637 0 3.225181338497453 -15.446827671042396 3.550568015953353 23.918877032871702 30.738768580687804 7.498686388836735 -10.048762806364135 25.89307382404733 5.644481428390528 0 0 0 -0.46163405082661324 -13.090383368270645 -2.825424035248422 -23.054526304174875 25.17280107082872 -6.1662947952478335 8.112850496822006 25.32653477266986 2.312580284912019 0 0 0 -0.6737777497957819 -3.547368004036193 -0.8775305725223717 -1.9710951075798147 -13.117458033300466 4.072722577869476 0 0 0 -16.31921828447263 -2.1997725071521472 -26.796409235454288 -4.058914498183492 -17.09387393391567 -52.99926580454615 -21.946102392015955 6.109425656120736 3.9330851587801323 -7.110139684591682 6.214833283039836 -50.88353264186745 0 0 0 0 0 0 0 0 0 0 0 0 0 0 0 0 0 0 0 0 0 0 0 0 0 0 0 0 0 0 0 0 0 0 0 0 0 0 0 0 0 0 0 0 0 -0.002295808684530643 0.5267397624437905 20.997548962006967 -0.0019481013839546507 -5.002566921580542 10.999613186643764 0 0 0 0 0 0 0 0 0 -11.928035638217583 -9.464357745513789 20.8543583583214 2.4039393406830407 -12.446956679333555 58.70787168089905 76.73736420512753 -9.79628991182684 32.46397737584534 -0.5304798274858139 0.6761949799468836 27.652967660589297 0 0 0 0 0 0 0 0 0 0 0 0 0 0 0 0 0 0 0 0 0 0 0 0 0 0 0 0 0 0 0 0 0 0 0 0 0 0 0 0 0 0 0 0 0
-0.12496102598966756 -10.295188816254715 0.2539479360489263 0 -85.33448148445841 0 2.022210393203939 -14.92858454656069 3.3921563791755784 23.918877032871702 30.738768580687804 7.498686388836735 -8.938652393590067 25.883866519111347 5.245973015961809 0 0 0 1.0733010355876638 -12.568607211528672 -2.621108622699001 -23.054526304174875 25.17280107082872 -6.1662947952478335 6.641696165819725 25.352548876073897 2.698636270608572 0 0 0 -0.676270822386974 -4.102361379381292 -0.8724184703813017 -1.9586503329373117 -11.575110778790354 4.014968643004153 0 0 0 -16.35216447322827 -2.629486444618625 -26.543577965336084 -4.058914498183492 -17.09387393391567 -52.99926580454615 -21.946102392015955 6.109425656120736 3.9330851587801323 -7.110139684591682 6.214833283039836 -50.88353264186745 0 0 0 0 0 0 0 0 0 0 0 0 0 0 0 0 0 0 0 0 0 0 0 0 0 0 0 0 0 0 0 0 0 0 0 0 0 0 0 0 0 0 0 0 0 0.11163616404286876 0.8242722358580827 20.820726083814332 0.04219532845673085 -4.779037943772179 10.804476968071626 0 0 0 0 0 0 0 0 0 -11.898468416502228 -10.018788150323134 20.82996936731277 2.4039393406830407 -12.446956679333555 58.70787168089905 76.73736251853033 -9.796291644640435 32.46398216013789 -0.5304798274858139 0.6761949799468836 27.652967660589297 0 0 0 0 0 0 0 0 0 0 0 0 0 0 0 0 0 0 0 0 0 0 0 0 0 0 0 0 0 0 0 0 0 0 0 0 0 0 0 0 0 0 0 0 0
-0.12496102598966756 -10.276915596855112 0.2539479360489263 0 -85.66857852892166 0 0.8178745059490454 -14.412500589470246 3.222520853445155 23.918877032871702 30.738768580687804 7.498686388836735 -7.826125314962705 25.881617472105333 4.846487840101803 0 0 0 2.612447879206495 -12.050565849659437 -2.4021996606361267 -23.054526304174875 25.17280107082872 -6.1662947952478335 5.165284180695341 25.387653832105013 3.0852637545204273 0 0 0 -0.6788162418237438 -4.657562866568774 -0.8672758642923677 -1.9478187141157224 -10.028202114984817 3.9576854844823637 0 0 0 -16.387032009854064 -3.0591827913436282 -26.29032459482501 -4.058914498183492 -17.09387393391567 -52.99926580454615 -21.946102392015955 6.10942694409633 3.9330851587801323 -7.110140110700019 6.214832853629354 -50.88353747450088 0 0 0 0 0 0 0 0 0 0 0 0 0 0 0 0 0 0 0 0 0 0 0 0 0 0 0 0 0 0 0 0 0 0 0 0 0 0 0 0 0 0 0 0 0 0.22467685331980702 1.1222037402658827 20.64444453174695 0.08556387315566381 -4.55533732521951 10.609558612182349 0 0 0 0 0 0 0 0 0 -11.868597399085631 -10.573415020556746 20.805240973656392 2.403939777460206 -12.446957553657338 58.70787168089905 76.73736420512753 -9.79628991182684 32.46397737584534 -0.5304797741235333 0.6761949799468836 27.652969173197146 0 0 0 0 0 0 0 0 0 0 0 0 0 0 0 0 0 0 0 0 0 0 0 0 0 0 0 0 0 0 0 0 0 0 0 0 0 0 0 0 0 0 0 0 0
-0.12496102598966756 -10.258642109063238 0.2539479360489263 0 -86.00266685985756 0 -0.38770156156937285 -13.898961250368558 3.041762875376482 23.91887864382556 30.738776527327516 7.498688877038543 -6.711452907807753 25.88636424514575 4.446259346992379 0 0 0 4.155426282833475 -11.536892982289086 -2.168842022192066 -23.05452804021844 25.17280107082872 -6.1662947952478335 3.684171817678356 25.43188972613053 3.4720614066692184 0 0 0 -0.6814150864552732 -5.212947537406863 -0.8621021930759161 -1.938575917376622 -8.477275750235066 3.900799705115929 0 0 0 -16.423825369313263 -3.488834388937035 -26.036636157322455 -4.058915389175802 -17.093875720381067 -52.999268657988054 -21.946102392015955 6.10942694409633 3.9330851587801323 -7.110139684591682 6.214833283039836 -50.88353264186745 0 0 0 0 0 0 0 0 0 0 0 0 0 0 0 0 0 0 0 0 0 0 0 0 0 0 0 0 0 0 0 0 0 0 0 0 0 0 0 0 0 0 0 0 0 0.3368291683689526 1.4205218882065265 20.468712433526086 0.12816030523378874 -4.331469527506246 10.41484499512323 0 0 0 0 0 0 0 0 0 -11.838417027851523 -11.128214066482634 20.780159416146113 2.4039393406830407 -12.446956679333555 58.70787168089905 76.73736336182893 -9.796290778233637 32.46398216013789 -0.5304798274858139 0.6761949799468836 27.652967660589297 0 0 0 0 0 0 0 0 0 0 0 0 0 0 0 0 0 0 0 0 0 0 0 0 0 0 0 0 0 0 0 0 0 0 0 0 0 0 0 0 0 0 0 0 0
-0.12496102598966756 -10.240368621271363 0.2539479360489263 0 -86.33681045953536 0 -1.5943853905286585 -13.388352286236387 2.8499952719015473 23.918873605871806 30.738764607368193 7.498682915800468 -5.5949316111610585 25.89813995117467 4.045520617298308 0 0 0 5.701839527593165 -11.0282275309731 -1.9212236313504811 -23.05452456813126 25.17280107082872 -6.1662943262938334 2.1989368773650217 25.48528555528644 3.8586277277119994 0 0 0 -0.6840669112726273 -5.768488301840151 -0.8568977432009001 -1.9309030068013397 -6.922895727021799 3.8442508121915187 0 0 0 -16.462551902132887 -3.9184161500680683 -25.7824842166074 -4.058914498183492 -17.09387393391567 -52.99926580454615 -21.946100799157936 6.109425656120736 3.9330851587801323 -7.110138832375007 6.214833283039836 -50.88352780923392 0 0 0 0 0 0 0 0 0 0 0 0 0 0 0 0 0 0 0 0 0 0 0 0 0 0 0 0 0 0 0 0 0 0 0 0 0 0 0 0 0 0 0 0 0 0.4480950205267599 1.7192195810367294 20.293512756903077 0.16998536405885786 -4.107439846400556 10.220340892127492 0 0 0 0 0 0 0 0 0 -11.807919839270399 -11.683154722432493 20.754722910977463 2.403938685517292 -12.446955805009772 58.70787168089905 76.73736420512753 -9.79628991182684 32.46397737584534 -0.5304798274858139 0.6761949265823143 27.65296614798141 0 0 0 0 0 0 0 0 0 0 0 0 0 0 0 0 0 0 0 0 0 0 0 0 0 0 0 0 0 0 0 0 0 0 0 0 0 0 0 0 0 0 0 0 0
-0.12496102598966756 -10.22209513347949 0.2539479360489263 0 -86.67103901607086 0 -2.8020392863288075 -12.881059226080309 2.647339554519813 23.918877032871702 30.738768580687804 7.498686388836735 -4.476843602133655 25.916969476846237 3.6445091726911945 0 0 0 7.251281254542447 -10.525207221566928 -1.6595617630011092 -23.05452456813126 25.17280107082872 -6.166293388385832 0.7101652753644941 25.54786871016586 4.244561456720657 0 0 0 -0.6867727765809977 -6.32415887482826 -0.851660899179815 -1.9247834187176014 -5.365623178969443 3.7879715597853676 0 0 0 -16.50322298502235 -4.347904833403923 -25.52785860830123 -4.058915136275912 -17.093872147450295 -52.99926295110445 -21.946102392015955 6.109425656120736 3.9330851587801323 -7.110139684591682 6.214833283039836 -50.88353264186745 0 0 0 0 0 0 0 0 0 0 0 0 0 0 0 0 0 0 0 0 0 0 0 0 0 0 0 0 0 0 0 0 0 0 0 0 0 0 0 0 0 0 0 0 0 0.5584761311481645 2.0182855592893874 20.118849300663335 0.21103882364905344 -3.883254839271838 10.02604135953959 0 0 0 0 0 0 0 0 0 -11.777100857231414 -12.238212284984364 20.728925812055284 2.403938685517292 -12.446955805009772 58.70787168089905 76.73736420512753 -9.79628991182684 32.46397737584534 -0.5304798274858139 0.6761949799468836 27.652967660589297 0 0 0 0 0 0 0 0 0 0 0 0 0 0 0 0 0 0 0 0 0 0 0 0 0 0 0 0 0 0 0 0 0 0 0 0 0 0 0 0 0 0 0 0 0
-0.12496102598966756 -10.203821914079887 0.2539479360489263 0 -87.00519810469345 0 -4.0105158853617295 -12.377465092069782 2.433930462575539 23.918877032871702 30.738768580687804 7.498686388836735 -3.3574865842871233 25.942861900357144 3.243465055321346 0 0 0 8.80332211719695 -10.02845441785533 -1.384101387013749 -23.05452456813126 25.17280107082872 -6.166293388385832 -0.7815560631367284 25.619606307279163 4.6294486156698955 0 0 0 -0.6895336409497655 -6.879935040223196 -0.8463899746052244 -1.9202050119619598 -3.806030959823329 3.731898838387416 0 0 0 -16.54583647090889 -4.777273893210334 -25.27273978487156 -4.058914498183492 -17.09387393391567 -52.99926580454615 -21.946102392015955 6.109425656120736 3.9330851587801323 -7.110139684591682 6.214833283039836 -50.88353264186745 0 0 0 0 0 0 0 0 0 0 0 0 0 0 0 0 0 0 0 0 0 0 0 0 0 0 0 0 0 0 0 0 0 0 0 0 0 0 0 0 0 0 0 0 0 0.6679759535108759 2.3177107517125233 19.94471551313157 0.2513213948678271 -3.658921468763065 9.831941322548081 0 0 0 0 0 0 0 0 0 -11.745953338589773 -12.793361813460843 20.702763832098903 2.4039393406830407 -12.446956679333555 58.70787168089905 76.73736420512753 -9.79628991182684 32.46397737584534 -0.5304798274858139 0.6761949799468836 27.652967660589297 0 0 0 0 0 0 0 0 0 0 0 0 0 0 0 0 0 0 0 0 0 0 0 0 0 0 0 0 0 0 0 0 0 0 0 0 0 0 0 0 0 0 0 0 0
-0.12496102598966756 -10.185548426288012 0.2539479360489263 0 -87.33942222535887 0 -5.219667885612682 -11.877953375984628 2.2099254717471415 23.918877032871702 30.738768580687804 7.498686388836735 -2.237150474958734 25.975825683978165 2.842629562142313 0 0 0 10.357515979490536 -9.538580241600865 -1.0951148574755991 -23.05452804021844 25.17280107082872 -6.1662947952478335 -2.2756308349333114 25.70047704059853 5.012884631618677 0 0 0 -0.6923502278970464 -7.435788175917053 -0.8410853036943264 -1.9171562117256638 -2.244691091075442 3.675967905516015 0 0 0 -16.59040042133781 -5.206496669100738 -25.017094327628463 -4.058914498183492 -17.09387393391567 -52.99926580454615 -21.946102392015955 6.109425656120736 3.9330851587801323 -7.110139684591682 6.214833283039836 -50.88353264186745 0 0 0 0 0 0 0 0 0 0 0 0 0 0 0 0 0 0 0 0 0 0 0 0 0 0 0 0 0 0 0 0 0 0 0 0 0 0 0 0 0 0 0 0 0 0.7765949547248938 2.6174845354242007 19.77110212521703 0.29083480663929584 -3.434444537382996 9.638043976448728 0 0 0 0 0 0 0 0 0 -11.714471189234576 -13.348574588843377 20.676227986920296 2.4039393406830407 -12.446956679333555 58.70787168089905 76.73736420512753 -9.79628991182684 32.46397737584534 -0.5304798274858139 0.6761949799468836 27.652967660589297 0 0 0 0 0 0 0 0 0 0 0 0 0 0 0 0 0 0 0 0 0 0 0 0 0 0 0 0 0 0 0 0 0 0 0 0 0 0 0 0 0 0 0 0 0
